# xmcd
#
# Track frame offsets:
#	150
#	21850
#	44017
#	59189
#	80547
#	99321
#	116667
#	130685
#	147566
#	169514
#	187080
#	202425
#	232600
#	265146
#	281657
#	311960
#
# Disc length: 4624 seconds
#
# Revision: 0
# Processed by: cddbd v1.5.1PL0 Copyright (c) Steve Scherf et al.
# Submitted via: audiograbber 1.81.02
#
DISCID=f6120e10
DTITLE=Theessink - bridges
DYEAR=1900
DGENRE=
TTITLE0=behind the sun
TTITLE1=believe the devil took her hand
TTITLE2=bridges
TTITLE3=dream
TTITLE4=circles
TTITLE5=running home
TTITLE6=brand new dawn
TTITLE7=zambezi
TTITLE8=moses
TTITLE9=odyssey
TTITLE10=people get ready
TTITLE11=what will the children play
TTITLE12=rain
TTITLE13=little girl
TTITLE14=Mbube
TTITLE15=????
EXTD=
EXTT0=
EXTT1=
EXTT2=
EXTT3=
EXTT4=
EXTT5=
EXTT6=
EXTT7=
EXTT8=
EXTT9=
EXTT10=
EXTT11=
EXTT12=
EXTT13=
EXTT14=
EXTT15=
PLAYORDER=
